<?xml version="1.0" standalone="no"?>
<!DOCTYPE svg PUBLIC "-//W3C//DTD SVG 20010904//EN"
 "http://www.w3.org/TR/2001/REC-SVG-20010904/DTD/svg10.dtd">
<svg version="1.0" xmlns="http://www.w3.org/2000/svg"
 width="1000.000000pt" height="1000.000000pt" viewBox="0 0 1000.000000 1000.000000"
 preserveAspectRatio="xMidYMid meet">

<g transform="translate(0.000000,1000.000000) scale(0.100000,-0.100000)"
fill="#000000" stroke="none">
<path d="M0 5000 l0 -5000 5000 0 5000 0 0 5000 0 5000 -5000 0 -5000 0 0
-5000z m5375 3491 c226 -28 351 -52 560 -108 404 -109 819 -312 1153 -563 69
-52 146 -110 171 -129 73 -56 361 -348 452 -461 332 -410 570 -880 688 -1360
47 -191 48 -195 70 -350 37 -266 39 -304 37 -550 -4 -287 -21 -456 -73 -700
-87 -416 -267 -846 -495 -1187 l-49 -73 -214 0 -215 0 -2 -757 -3 -758 -2455
0 -2455 0 -3 758 -2 757 -215 0 -214 0 -49 73 c-193 286 -359 656 -451 1002
-83 315 -112 537 -117 885 -2 246 0 284 37 550 22 155 23 159 70 350 118 481
355 950 688 1360 91 113 379 405 452 461 25 19 102 77 171 129 435 328 988
561 1528 645 234 36 325 42 585 40 143 -1 301 -8 350 -14z"/>
<path d="M4735 8344 c-144 -11 -417 -58 -575 -98 -337 -86 -682 -238 -985
-434 -633 -410 -1108 -1023 -1354 -1747 -34 -101 -95 -331 -111 -421 -47 -264
-53 -336 -53 -639 0 -256 3 -321 21 -445 51 -348 120 -600 244 -890 85 -198
254 -496 285 -502 9 -2 246 -2 526 0 l509 2 -79 84 c-588 621 -823 1478 -634
2316 152 677 601 1282 1212 1632 206 118 465 220 694 271 204 47 334 60 565
60 153 0 250 -5 335 -17 468 -69 886 -247 1250 -534 99 -79 329 -311 407 -412
198 -257 352 -552 434 -828 88 -298 121 -584 104 -894 -34 -596 -281 -1164
-694 -1595 l-78 -83 509 -2 c280 -2 517 -2 526 0 44 9 249 396 345 654 89 237
141 444 184 738 18 124 22 189 21 445 0 302 -6 378 -53 639 -15 84 -73 304
-108 411 -257 781 -809 1453 -1527 1861 -230 130 -434 216 -730 307 -100 31
-319 77 -495 103 -101 15 -574 27 -695 18z m401 -225 c61 -29 86 -74 92 -164
4 -62 1 -81 -18 -120 -59 -121 -214 -137 -296 -29 -25 32 -29 48 -32 114 -3
62 0 84 16 116 50 97 143 130 238 83z m-416 -19 c36 -19 62 -60 67 -104 10
-84 -30 -135 -117 -153 l-45 -9 0 -52 c0 -60 -11 -75 -51 -70 -27 3 -30 7 -36
58 -21 159 -37 315 -32 320 3 3 33 10 67 16 63 11 119 9 147 -6z m716 0 c7 -7
8 -30 3 -63 -23 -146 -36 -242 -35 -244 0 -1 33 -8 71 -15 65 -14 70 -16 73
-42 2 -16 0 -32 -5 -37 -10 -10 -212 18 -227 31 -5 5 -4 42 3 87 7 43 19 122
27 176 7 54 16 103 19 108 8 12 58 12 71 -1z m328 -63 c16 -12 15 -21 -18
-157 -57 -232 -53 -220 -85 -220 -52 0 -54 14 -16 171 55 225 53 219 78 219
13 0 31 -6 41 -13z m-1534 -67 c57 -173 91 -293 87 -304 -7 -18 -60 -27 -69
-13 -4 7 -19 48 -33 92 -39 121 -35 112 -44 95 -5 -8 -12 -33 -15 -55 -16 -91
-19 -92 -92 -29 -30 25 -54 42 -54 37 0 -5 13 -52 30 -103 16 -52 30 -98 30
-101 0 -12 -61 -32 -70 -23 -18 18 -122 356 -113 365 5 5 23 13 40 18 28 8 36
4 96 -50 l65 -59 16 69 c9 39 16 77 16 86 0 18 35 35 68 32 19 -2 27 -13 42
-57z m1858 -24 c40 -21 75 -63 69 -81 -4 -8 -18 -20 -32 -27 -22 -10 -29 -8
-53 14 -38 36 -66 42 -101 22 -54 -32 -86 -125 -61 -184 14 -33 35 -43 95 -42
36 1 44 -3 54 -25 15 -33 1 -50 -46 -59 -70 -13 -148 28 -183 97 -25 48 -25
95 -1 158 37 98 90 140 179 141 29 0 65 -6 80 -14z m323 -146 c84 -43 100 -54
97 -72 -6 -42 -32 -45 -103 -10 -36 17 -67 32 -70 32 -5 0 -35 -55 -35 -64 0
-3 27 -19 60 -36 63 -32 72 -49 46 -85 -13 -18 -16 -17 -74 13 -34 18 -63 32
-66 32 -7 0 -36 -56 -36 -68 0 -4 32 -23 70 -42 73 -35 82 -50 56 -86 -14 -18
-17 -17 -116 31 -56 28 -106 55 -111 62 -7 8 14 60 67 165 79 159 90 178 105
178 5 0 55 -23 110 -50z m-2632 -112 c75 -73 140 -138 144 -145 5 -9 -3 -18
-28 -30 -35 -17 -35 -16 -63 10 -35 33 -40 33 -103 1 -50 -25 -51 -26 -45 -62
3 -20 2 -42 -2 -48 -13 -20 -53 -37 -64 -26 -5 5 -16 67 -24 138 -8 71 -18
156 -23 188 -8 56 -7 61 17 83 14 13 31 23 40 23 8 0 76 -60 151 -132z m-335
-179 c54 -78 101 -150 104 -161 5 -20 -22 -47 -49 -48 -9 0 -31 24 -49 53 -19
28 -38 55 -43 58 -14 10 -108 -61 -100 -74 4 -7 22 -33 40 -58 18 -26 33 -51
33 -57 0 -13 -39 -42 -56 -42 -6 0 -59 70 -119 156 l-108 157 24 18 c36 28 52
23 83 -26 43 -67 50 -71 90 -46 61 38 63 45 22 106 -20 30 -36 60 -36 66 0 15
30 38 51 39 9 0 57 -60 113 -141z m3397 27 c68 -55 99 -104 99 -151 0 -78 -60
-172 -129 -201 -46 -21 -109 -21 -148 -1 -50 26 -135 98 -130 110 11 29 220
297 231 297 7 0 41 -24 77 -54z m-3805 -151 c15 -24 15 -25 -15 -51 -17 -14
-31 -30 -31 -35 0 -4 45 -58 100 -119 86 -94 99 -113 90 -129 -5 -11 -20 -23
-32 -27 -17 -5 -30 3 -67 42 -125 136 -153 164 -165 164 -7 0 -21 -9 -31 -20
-10 -11 -25 -20 -33 -20 -16 0 -52 28 -52 40 0 13 192 180 206 180 7 0 21 -11
30 -25z m4174 -159 c78 -79 82 -92 37 -120 -14 -9 -27 0 -75 47 l-58 57 -28
-29 -28 -29 51 -53 50 -54 -24 -25 -25 -24 -48 47 c-26 26 -52 47 -57 47 -11
0 -55 -41 -55 -51 0 -4 26 -32 58 -63 47 -46 55 -58 46 -73 -28 -46 -40 -42
-129 47 -47 46 -85 89 -85 95 0 5 59 69 132 142 102 102 135 130 147 123 9 -5
50 -43 91 -84z m-4396 -140 c68 -28 126 -95 147 -170 21 -73 -46 -177 -127
-194 -66 -14 -124 2 -179 50 -120 106 -111 244 20 316 28 16 99 15 139 -2z
m4609 -98 c57 -68 67 -88 67 -135 0 -49 -29 -95 -73 -116 -67 -32 -130 -17
-181 44 l-27 32 -39 -32 c-47 -37 -59 -38 -84 -5 -17 24 -17 27 -2 42 36 37
272 221 283 221 6 1 31 -23 56 -51z m-4953 -257 c11 -28 10 -32 -29 -69 -57
-54 -56 -89 3 -148 43 -43 62 -50 126 -45 32 2 70 44 70 77 0 17 -8 28 -26 36
-23 11 -28 9 -44 -12 -16 -21 -21 -23 -44 -12 -14 6 -26 18 -26 27 0 19 59
115 71 115 17 0 139 -82 148 -99 12 -22 4 -68 -21 -119 -47 -98 -154 -130
-258 -75 -131 69 -159 214 -59 314 47 47 72 50 89 10z m5204 -91 c20 -35 31
-16 -133 -220 -120 -149 -108 -139 -131 -110 -25 32 -25 46 0 77 26 34 25 47
-7 100 -28 44 -28 45 -75 39 -46 -5 -49 -4 -64 26 -9 16 -12 34 -7 38 4 4 35
13 68 19 33 7 107 23 165 35 149 33 162 32 184 -4z m182 -344 c41 -95 44 -148
11 -189 -39 -48 -109 -61 -178 -33 -11 5 -29 -11 -62 -54 -26 -33 -52 -58 -57
-55 -5 3 -14 21 -20 41 -11 33 -10 37 29 89 43 57 48 74 30 92 -8 8 -22 6 -53
-8 -22 -10 -48 -19 -57 -19 -17 0 -47 56 -36 67 13 12 332 151 345 150 7 -1
29 -38 48 -81z m-5663 -28 c16 -12 15 -19 -13 -87 -16 -40 -30 -74 -30 -76 0
-7 61 -27 72 -22 7 2 19 22 27 43 21 62 38 83 60 77 41 -10 43 -27 16 -94 -14
-34 -25 -64 -25 -65 0 -2 27 -13 60 -25 77 -28 86 -39 65 -78 -8 -17 -17 -31
-18 -31 -7 0 -349 139 -354 144 -5 5 48 150 73 199 16 29 40 35 67 15z m5811
-373 c41 -136 39 -159 -12 -153 -20 2 -28 12 -37 43 -6 22 -16 39 -21 39 -5
-1 -71 -21 -148 -44 -76 -22 -143 -37 -147 -33 -5 5 -11 23 -15 40 l-6 32 88
26 c191 57 209 64 207 74 -2 5 -5 28 -9 49 -7 42 -5 44 52 51 6 0 28 -55 48
-124z m-5804 -16 c89 -20 150 -90 150 -172 0 -101 -61 -168 -159 -175 -73 -5
-133 11 -177 50 -46 41 -67 82 -66 133 3 132 104 198 252 164z m5885 -296 c6
-30 3 -34 -64 -85 -39 -29 -67 -55 -63 -59 4 -4 36 -17 72 -30 83 -29 90 -35
90 -75 0 -18 -6 -36 -12 -41 -12 -7 -61 -15 -265 -44 -45 -6 -88 -9 -96 -6
-16 6 -28 50 -18 65 3 4 47 14 96 22 137 20 140 22 57 55 -40 15 -72 33 -72
39 1 6 25 29 55 51 62 46 69 60 23 51 -74 -15 -179 -27 -188 -21 -6 3 -10 21
-10 39 l0 34 78 11 c42 7 122 19 176 27 55 8 102 16 105 19 9 10 29 -19 36
-52z m-6070 -328 c105 -63 109 -65 176 -65 65 0 69 -1 75 -25 12 -48 1 -55
-84 -55 -74 0 -86 -3 -186 -50 -59 -27 -111 -50 -116 -50 -15 0 -21 36 -11 62
7 18 28 33 75 53 36 15 66 31 66 36 0 4 -29 24 -65 43 -35 20 -66 40 -68 44
-9 15 6 72 18 72 7 0 61 -29 120 -65z m6116 -207 c0 -57 2 -111 4 -121 2 -12
-5 -21 -21 -27 -45 -17 -53 -5 -56 83 l-3 82 -31 2 c-45 4 -57 -16 -51 -82 6
-60 -6 -79 -45 -73 -21 3 -23 9 -28 78 -3 41 -8 74 -12 73 -5 -2 -21 -3 -38
-3 l-30 0 0 -69 c0 -90 -5 -101 -45 -101 l-33 0 -4 118 c-3 65 0 123 5 130 7
9 59 12 198 12 l189 0 1 -102z m-6187 -150 c3 -13 6 -34 6 -47 l0 -23 123 8
c204 13 192 15 195 -27 2 -25 -2 -38 -12 -42 -8 -3 -73 -9 -143 -13 -70 -4
-134 -10 -142 -14 -9 -5 -15 -25 -15 -51 -1 -43 -1 -44 -36 -44 l-35 0 -6 65
c-4 36 -7 98 -8 138 l-1 72 34 0 c26 0 35 -5 40 -22z m5991 -113 c182 -22 191
-25 187 -61 -2 -16 -7 -34 -12 -39 -5 -6 -56 -33 -114 -60 -58 -28 -105 -53
-106 -56 0 -3 43 -11 97 -17 53 -6 100 -15 106 -21 5 -5 6 -23 2 -41 -7 -32
-7 -32 -59 -27 -189 20 -266 30 -300 38 -36 10 -38 12 -32 41 3 18 7 32 9 34
1 1 53 27 116 58 62 32 111 60 108 63 -3 3 -50 10 -104 17 -97 11 -98 11 -101
39 -6 49 4 60 46 53 20 -4 91 -13 157 -21z m-5641 -201 c20 -52 4 -65 -99 -82
-38 -6 -114 -19 -169 -28 -54 -9 -102 -12 -106 -7 -4 4 -11 22 -15 40 -7 37
-13 34 115 54 41 6 109 17 150 24 105 17 117 17 124 -1z m16 -184 c52 -56 59
-150 15 -216 -40 -62 -177 -101 -258 -75 -82 28 -135 132 -107 215 13 40 17
41 55 24 25 -11 26 -15 20 -58 -6 -41 -3 -51 18 -76 21 -24 31 -28 74 -27 124
2 187 90 117 164 -26 27 -26 29 -10 54 22 33 42 32 76 -5z m5746 -64 c5 -14
-34 -184 -55 -239 -9 -24 -14 -27 -38 -21 -37 9 -43 20 -31 61 5 20 6 39 1 43
-4 5 -66 23 -138 41 -133 33 -157 46 -148 79 12 44 23 44 216 -9 43 -12 84
-23 90 -24 6 -1 17 17 25 41 12 37 18 42 43 42 16 0 32 -6 35 -14z m-5500
-498 c-4 -29 -9 -74 -13 -100 l-5 -47 80 -40 c73 -37 100 -56 90 -66 -1 -2
-41 -11 -88 -20 -47 -10 -90 -21 -96 -26 -7 -5 -15 -40 -19 -76 -8 -77 -21
-117 -34 -108 -6 3 -28 39 -51 80 -23 41 -45 77 -49 79 -5 3 -45 -2 -90 -10
-121 -23 -125 -17 -45 72 l69 76 -43 78 c-23 43 -42 83 -42 89 0 18 25 12 101
-24 41 -19 78 -35 84 -35 6 0 40 29 75 65 35 36 69 65 73 65 6 0 7 -23 3 -52z
m4964 -13 c35 -36 69 -65 75 -65 6 0 43 16 84 35 76 36 101 42 101 24 0 -6
-19 -46 -42 -89 l-43 -78 69 -76 c80 -89 76 -95 -45 -72 -45 8 -85 13 -90 10
-4 -2 -26 -38 -49 -79 -23 -41 -45 -77 -51 -80 -13 -9 -26 31 -34 108 -4 36
-12 71 -19 76 -6 5 -49 16 -96 26 -47 9 -87 18 -88 20 -10 10 17 29 90 66 l80
40 -6 50 c-3 27 -9 72 -12 99 -4 28 -3 50 3 50 4 0 38 -29 73 -65z"/>
<path d="M5008 8046 c-23 -17 -48 -77 -48 -115 0 -131 148 -162 181 -38 23 85
-18 167 -83 167 -18 0 -41 -7 -50 -14z"/>
<path d="M4603 8034 c-12 -6 -7 -101 6 -117 13 -14 72 6 88 29 35 54 -29 114
-94 88z"/>
<path d="M3657 7658 c9 -79 10 -80 43 -63 17 9 30 19 30 23 0 9 -63 72 -71 72
-3 0 -4 -15 -2 -32z"/>
<path d="M6706 7389 c-68 -91 -68 -91 -48 -111 11 -12 39 -22 64 -25 37 -4 49
-1 75 21 36 30 66 99 57 130 -7 25 -53 76 -69 76 -6 0 -41 -41 -79 -91z"/>
<path d="M2699 7009 c-32 -12 -54 -58 -45 -95 4 -14 24 -44 44 -66 31 -33 46
-41 84 -45 40 -5 50 -2 72 20 48 49 21 129 -59 174 -44 25 -57 26 -96 12z"/>
<path d="M7317 6899 c-43 -36 -45 -48 -14 -77 30 -28 61 -28 87 0 24 27 25 41
3 79 -22 36 -30 36 -76 -2z"/>
<path d="M7503 6568 c-47 -10 -52 -21 -27 -56 l16 -23 34 38 c33 37 41 54 27
52 -5 -1 -27 -5 -50 -11z"/>
<path d="M7718 6249 c-43 -22 -43 -22 -20 -69 20 -41 62 -52 93 -24 22 20 23
35 7 81 -14 38 -28 40 -80 12z"/>
<path d="M2093 5798 c-32 -8 -73 -50 -73 -74 0 -93 179 -151 236 -76 8 9 14
33 14 54 0 28 -7 42 -31 62 -17 14 -34 26 -37 26 -4 0 -23 4 -42 8 -19 5 -49
5 -67 0z"/>
<path d="M4705 7358 c-214 -25 -359 -61 -565 -141 -430 -166 -804 -457 -1076
-837 -40 -57 -72 -105 -71 -107 4 -3 184 -29 270 -38 31 -4 57 -11 57 -18 0
-14 -42 -76 -55 -80 -10 -3 -98 3 -260 18 l-81 8 -23 -46 c-13 -25 -21 -49
-18 -54 4 -6 48 -10 99 -11 126 -2 218 -12 218 -24 0 -14 -32 -72 -44 -80 -6
-4 -86 -8 -177 -8 l-166 0 -17 -43 c-9 -23 -16 -47 -16 -53 0 -7 51 -9 154 -6
110 3 155 1 161 -7 4 -7 -2 -31 -13 -55 l-21 -43 -118 -8 c-65 -4 -140 -10
-167 -14 l-50 -6 -12 -49 c-7 -28 -11 -53 -9 -56 3 -4 26 -4 52 0 26 4 97 11
157 15 l109 8 -6 -29 c-14 -72 -22 -82 -79 -89 -29 -3 -101 -13 -159 -22
l-107 -15 -11 -38 c-6 -20 -11 -47 -11 -60 0 -20 3 -22 38 -15 95 19 268 42
275 38 5 -3 6 -17 2 -31 -3 -15 -7 -38 -10 -51 -2 -13 -6 -25 -7 -26 -2 -2
-50 -12 -108 -24 -58 -11 -128 -26 -157 -32 l-51 -12 -4 -49 c-1 -28 0 -54 3
-59 3 -6 49 1 112 16 58 14 126 28 151 31 l46 7 -6 -49 c-4 -27 -12 -54 -18
-61 -6 -7 -73 -29 -148 -49 l-138 -38 0 -62 c0 -46 3 -62 13 -59 126 43 282
84 287 75 4 -6 8 -33 9 -59 l1 -48 -127 -45 c-71 -25 -138 -49 -151 -53 -22
-6 -23 -10 -17 -58 4 -29 11 -56 16 -61 5 -6 63 12 144 44 149 59 148 59 161
-7 8 -43 0 -61 -31 -73 -14 -5 -44 -18 -68 -29 -23 -10 -72 -33 -109 -49 -38
-17 -68 -34 -68 -39 0 -4 6 -30 14 -58 9 -33 18 -49 27 -47 8 2 65 28 127 57
62 30 120 56 129 57 11 2 20 -11 29 -42 8 -25 14 -51 14 -57 0 -7 -58 -42
-129 -78 -71 -35 -132 -68 -134 -72 -7 -11 33 -113 44 -113 5 0 65 32 133 70
68 39 126 70 130 70 10 0 47 -92 42 -105 -2 -7 -59 -45 -125 -85 -67 -40 -121
-79 -121 -87 0 -26 51 -103 63 -96 7 4 63 40 125 80 62 40 114 73 117 73 10 0
64 -93 59 -101 -2 -4 -56 -44 -119 -89 -63 -44 -115 -86 -115 -92 0 -14 53
-98 61 -98 4 0 57 38 118 85 61 47 116 85 123 85 15 0 68 -63 68 -82 0 -13 -9
-21 -137 -125 -46 -36 -83 -71 -83 -77 0 -6 17 -30 38 -54 l37 -44 114 102
114 101 38 -37 c22 -21 39 -43 39 -50 0 -6 -48 -57 -106 -113 l-106 -101 43
-40 c24 -22 46 -40 49 -40 3 0 50 45 105 100 55 55 106 100 115 100 8 0 31
-13 50 -29 43 -36 41 -40 -70 -160 -47 -50 -85 -97 -85 -103 0 -7 20 -27 45
-46 l44 -34 26 29 c14 16 58 69 99 116 40 48 77 87 81 87 12 0 90 -59 90 -69
0 -4 -41 -59 -90 -120 -50 -62 -88 -116 -86 -120 3 -5 49 -33 103 -63 275
-154 579 -254 878 -288 116 -13 454 -13 570 0 163 19 377 70 530 127 157 58
433 195 450 223 3 4 -35 59 -85 122 -49 62 -90 116 -90 120 0 9 79 68 90 68 4
0 41 -39 81 -87 41 -47 85 -100 99 -116 l26 -29 44 33 c24 19 45 39 47 45 2 6
-39 55 -91 110 -52 54 -95 106 -96 114 0 17 62 70 82 70 7 0 58 -45 113 -100
55 -55 102 -100 105 -100 3 0 25 18 49 40 l44 40 -107 101 c-58 55 -106 106
-106 113 0 7 17 29 39 50 l39 38 66 -60 c36 -33 88 -78 115 -101 l49 -41 36
43 c20 24 36 48 36 54 0 5 -37 40 -82 76 -129 104 -138 112 -138 125 0 19 53
82 68 82 7 0 62 -38 123 -85 61 -47 114 -85 118 -85 8 0 61 84 61 98 0 6 -54
50 -120 97 l-120 87 22 39 c38 68 36 68 160 -13 62 -41 118 -77 125 -81 12 -7
63 70 63 96 0 8 -54 47 -121 87 -66 39 -122 77 -125 84 -3 7 4 34 16 60 24 57
13 59 167 -30 62 -35 117 -64 122 -64 11 0 51 101 44 113 -2 4 -63 37 -134 72
-95 48 -129 70 -129 84 0 21 19 82 30 94 3 4 62 -19 131 -52 68 -33 130 -61
138 -63 14 -3 45 86 37 108 -2 5 -59 34 -127 64 -68 29 -130 59 -138 66 -15
14 -7 99 11 110 5 4 70 -17 144 -47 81 -31 138 -49 143 -43 5 5 12 32 16 61
l7 52 -34 10 c-18 5 -62 20 -98 34 -36 13 -89 32 -117 41 -53 18 -53 18 -53
60 0 75 10 79 120 45 52 -16 116 -36 143 -43 l47 -15 0 63 0 62 -140 39 c-77
21 -145 44 -150 50 -6 7 -13 34 -15 59 -5 44 -4 46 20 46 14 0 82 -14 152 -30
74 -18 129 -27 132 -21 3 5 4 31 3 59 l-4 49 -51 12 c-29 6 -99 21 -157 32
-58 12 -106 22 -108 24 -2 2 -6 18 -8 37 -3 18 -7 38 -9 45 -5 15 19 35 36 28
8 -2 59 -11 114 -19 55 -8 115 -18 133 -22 29 -6 32 -4 32 16 0 13 -5 40 -11
60 l-11 38 -107 15 c-58 9 -130 19 -159 22 -57 7 -65 17 -79 89 l-6 28 114 -7
c63 -4 133 -11 157 -15 23 -4 44 -4 47 -1 2 4 -2 29 -9 57 l-12 49 -50 6 c-27
4 -102 10 -167 14 l-119 8 -19 44 c-10 25 -16 50 -13 55 5 7 59 9 160 6 108
-4 154 -2 154 5 0 6 -7 31 -16 54 l-17 43 -166 0 c-91 0 -171 4 -177 8 -12 8
-44 66 -44 80 0 11 104 22 228 24 46 1 86 6 89 11 3 5 -5 29 -18 54 l-23 46
-81 -8 c-162 -15 -250 -21 -260 -18 -13 4 -55 66 -55 80 0 7 26 14 58 18 85 9
265 35 269 38 7 7 -154 220 -234 310 -95 107 -265 262 -378 344 -268 195 -569
327 -930 407 -180 40 -533 51 -760 24z m319 -112 c11 -27 19 -33 40 -31 37 4
44 -15 13 -37 -22 -16 -25 -24 -20 -53 6 -39 -1 -43 -35 -19 -20 14 -24 14
-44 0 -34 -24 -41 -20 -35 19 5 29 2 37 -20 53 -31 22 -24 40 12 36 20 -2 29
4 38 24 10 23 25 41 34 42 2 0 9 -15 17 -34z m-587 -68 c17 -16 34 -22 58 -19
40 3 42 -2 15 -36 -19 -24 -19 -27 -3 -54 21 -35 13 -44 -26 -31 -25 9 -32 7
-52 -14 -26 -28 -39 -23 -39 16 0 23 -7 33 -30 45 -16 9 -30 18 -30 21 0 3 16
12 35 20 29 12 35 19 35 44 0 36 6 37 37 8z m1163 -8 c0 -25 6 -32 35 -44 19
-8 35 -17 35 -20 0 -3 -13 -12 -30 -21 -23 -12 -30 -22 -30 -45 0 -39 -13 -44
-39 -16 -20 21 -27 23 -52 14 -39 -13 -47 -4 -26 31 16 27 16 30 -4 55 -26 33
-18 47 20 36 24 -7 33 -4 52 16 30 32 39 30 39 -6z m-315 -196 c326 -47 640
-177 902 -372 119 -89 309 -277 393 -387 275 -363 409 -760 410 -1212 0 -530
-189 -1000 -559 -1386 -254 -264 -577 -453 -935 -547 -304 -79 -675 -80 -986
-1 -514 131 -962 469 -1235 935 -177 302 -265 632 -265 994 0 277 42 500 139
742 109 270 255 485 474 696 138 133 237 208 399 300 383 218 825 302 1263
238z m-1335 -21 c34 20 41 14 28 -24 -9 -26 -7 -34 11 -53 29 -31 27 -48 -6
-46 -46 3 -51 1 -62 -32 -12 -35 -21 -32 -37 14 -8 24 -17 32 -39 35 -42 6
-44 12 -12 37 21 17 28 31 27 52 -3 46 -2 47 31 23 30 -21 33 -21 59 -6z
m2192 -17 c-3 -26 2 -36 22 -50 35 -22 33 -34 -6 -38 -25 -2 -33 -9 -42 -35
-16 -47 -25 -50 -37 -15 -11 33 -16 35 -61 32 -34 -2 -36 15 -7 46 18 19 20
27 11 53 -13 38 -6 44 28 24 26 -15 30 -15 56 5 34 24 39 21 36 -22z m-2631
-318 c1 -7 0 -23 -1 -35 -1 -16 7 -26 24 -34 35 -16 33 -36 -3 -44 -22 -5 -31
-14 -36 -36 -8 -36 -28 -37 -44 -3 -10 22 -17 25 -42 22 -39 -6 -46 8 -19 37
21 22 21 24 5 55 -9 17 -14 34 -12 37 3 2 21 -2 40 -11 33 -13 37 -13 53 5 20
22 34 24 35 7z m3013 -7 c16 -18 20 -18 53 -5 19 9 37 13 40 11 2 -3 -3 -20
-12 -37 -16 -31 -16 -33 5 -55 27 -29 18 -46 -20 -38 -25 4 -31 1 -41 -21 -16
-34 -36 -33 -44 3 -5 22 -14 31 -36 36 -40 9 -45 23 -14 37 23 10 39 40 34 64
-5 29 11 32 35 5z m-2054 -3660 c0 -30 13 -47 43 -52 26 -6 24 -22 -7 -37 -16
-8 -26 -21 -26 -35 0 -12 -5 -29 -10 -37 -9 -13 -13 -12 -28 8 -16 20 -24 23
-55 17 -40 -8 -46 1 -25 34 9 15 9 25 -2 48 -8 15 -16 32 -18 37 -3 5 11 6 30
2 28 -5 38 -2 58 19 30 32 40 32 40 -4z m1099 3 c17 -22 25 -24 57 -18 20 4
35 3 32 -2 -2 -5 -10 -22 -18 -37 -12 -25 -12 -32 5 -59 l18 -31 -44 7 c-38 6
-45 4 -61 -16 -15 -19 -19 -21 -27 -8 -5 8 -8 18 -5 22 8 12 -15 48 -30 48 -8
0 -19 7 -26 15 -10 12 -5 17 24 29 30 13 36 20 36 45 0 38 12 39 39 5z m-549
-79 c5 -14 15 -25 22 -26 59 -3 69 -16 36 -43 -25 -19 -27 -25 -18 -55 9 -31
8 -33 -13 -26 -28 10 -66 10 -94 0 -21 -7 -22 -5 -13 26 9 30 7 36 -18 55 -33
27 -23 40 36 43 7 1 17 12 22 26 5 14 14 25 20 25 6 0 15 -11 20 -25z"/>
<path d="M4944 6829 c-3 -6 -21 -41 -40 -78 -83 -166 -245 -253 -432 -231 -89
10 -138 30 -221 92 -48 37 -56 39 -80 28 -41 -18 -203 -117 -235 -143 l-28
-23 25 -51 c45 -88 54 -215 19 -279 -22 -42 -80 -82 -135 -94 -64 -15 -125 -4
-220 38 -35 15 -61 22 -65 16 -67 -97 -97 -143 -136 -211 l-48 -83 12 -53 c18
-80 -6 -157 -67 -214 -25 -24 -49 -43 -53 -43 -12 0 -33 -89 -56 -230 -2 -14
-6 -40 -9 -58 -15 -85 -6 -381 16 -513 46 -291 182 -601 360 -825 45 -57 55
-64 86 -64 91 0 170 -51 209 -134 13 -28 24 -67 24 -87 0 -31 6 -40 46 -69
l46 -32 73 11 c159 26 309 -22 346 -110 7 -17 13 -52 13 -77 1 -40 4 -47 26
-53 228 -68 366 -89 580 -89 214 0 352 21 580 89 22 6 25 13 26 53 1 86 40
137 131 173 46 18 171 24 253 12 53 -8 57 -7 98 24 35 28 42 39 42 69 0 19 11
58 24 86 39 83 118 134 209 134 31 0 41 7 85 63 180 227 315 535 362 826 21
131 30 428 15 513 -3 18 -7 44 -9 58 -23 141 -44 230 -56 230 -4 0 -28 19 -53
43 -61 57 -85 134 -67 214 l12 53 -48 83 c-39 68 -69 114 -136 211 -4 6 -30
-1 -65 -16 -95 -42 -156 -53 -220 -38 -55 12 -113 52 -135 94 -35 64 -26 191
19 279 l25 51 -28 23 c-32 26 -194 125 -235 143 -24 11 -32 9 -80 -28 -82 -61
-133 -82 -218 -92 -194 -22 -350 64 -440 241 l-38 74 -51 2 c-29 1 -54 -3 -58
-8z m91 -365 c10 -11 14 -25 11 -40 -6 -23 -4 -24 39 -24 78 0 347 -30 420
-47 127 -29 171 -61 161 -116 -6 -31 -4 -34 39 -52 42 -17 46 -21 43 -48 -9
-87 -202 -114 -270 -38 -16 17 -28 38 -28 46 0 8 23 26 50 40 46 23 50 28 44
53 -4 15 -11 32 -16 37 -10 11 -222 16 -340 8 -76 -6 -78 -6 -78 -32 0 -43
-16 -51 -110 -51 -94 0 -110 8 -110 51 0 26 -2 26 -77 32 -119 8 -331 3 -341
-8 -5 -5 -12 -22 -16 -37 -6 -25 -2 -30 44 -53 27 -14 50 -32 50 -40 0 -8 -13
-29 -28 -46 -67 -75 -261 -48 -270 38 -3 27 1 31 43 48 43 18 45 21 39 52 -10
55 34 86 161 116 71 17 342 47 422 47 41 0 43 1 37 24 -6 27 17 56 46 56 10 0
26 -7 35 -16z m1013 -1206 c-4 -623 -5 -657 -25 -743 -75 -320 -234 -537 -531
-725 -96 -61 -279 -145 -404 -186 l-88 -28 -87 28 c-126 41 -309 125 -405 186
-297 188 -456 405 -531 725 -20 86 -21 120 -25 743 l-3 652 1051 0 1051 0 -3
-652z m296 473 c23 -20 46 -72 46 -106 0 -20 -5 -25 -24 -25 -29 0 -62 38 -77
91 -20 65 4 83 55 40z m-2584 -41 c0 -44 -35 -107 -70 -125 -28 -14 -31 -14
-36 0 -14 34 5 90 41 123 45 41 65 42 65 2z m2759 -42 c17 -47 -9 -121 -55
-157 -51 -40 -162 -23 -213 32 -28 31 -21 47 24 47 42 0 84 -15 111 -41 l22
-20 6 34 c7 36 69 127 87 127 5 0 13 -10 18 -22z m-2944 -52 c15 -19 34 -55
44 -81 17 -45 18 -45 35 -26 27 30 110 55 136 41 16 -9 18 -15 10 -30 -24 -44
-105 -78 -175 -72 -63 5 -123 101 -108 174 7 37 26 35 58 -6z m2995 -115 c0
-50 -22 -105 -57 -140 -26 -26 -37 -31 -45 -23 -7 7 -30 12 -53 12 -28 0 -52
8 -75 25 -36 26 -62 64 -54 77 14 23 110 -5 150 -43 24 -23 28 -19 38 28 4 17
21 50 37 73 25 34 33 39 45 30 8 -7 14 -24 14 -39z m-3051 -17 c11 -14 28 -46
37 -72 10 -26 19 -48 20 -50 1 -2 19 8 41 21 44 29 117 44 128 27 20 -33 -47
-91 -114 -98 -25 -2 -52 -9 -60 -15 -19 -16 -77 49 -91 104 -12 43 -6 109 10
109 5 0 18 -12 29 -26z m3121 -144 c0 -54 -29 -109 -85 -158 -35 -31 -45 -46
-45 -71 0 -17 5 -31 10 -31 6 0 10 4 10 9 0 13 110 131 121 131 17 0 21 -27 9
-70 -13 -47 -64 -108 -113 -135 -30 -16 -35 -25 -40 -64 -3 -25 -4 -47 -3 -48
1 -1 16 16 33 38 36 46 92 91 104 83 12 -7 11 -57 -2 -91 -14 -37 -54 -79
-106 -110 -44 -25 -47 -32 -59 -98 l-7 -40 29 26 c35 33 106 69 134 69 68 0
-38 -126 -131 -155 -53 -17 -56 -20 -73 -69 -10 -28 -21 -57 -24 -65 -3 -8 19
4 49 26 30 22 76 50 102 61 42 19 49 19 54 6 12 -33 -57 -117 -123 -149 -22
-10 -57 -21 -79 -24 -34 -5 -43 -12 -63 -49 -13 -24 -21 -46 -18 -49 3 -3 50
10 104 30 55 21 102 37 105 37 18 0 3 -34 -30 -72 -50 -54 -103 -78 -179 -78
l-61 0 -38 -56 c-24 -37 -31 -55 -21 -51 9 4 48 16 86 28 71 21 111 22 117 3
7 -20 -77 -93 -130 -112 -46 -18 -56 -18 -97 -6 l-45 14 -45 -45 c-24 -24 -42
-46 -40 -49 3 -2 30 2 60 10 69 18 121 18 146 0 18 -14 18 -15 -11 -46 -61
-65 -164 -92 -226 -60 -34 18 -88 70 -105 102 -21 40 -18 114 8 159 44 78 73
53 73 -62 0 -44 3 -79 7 -79 3 0 27 24 51 53 l46 52 -21 22 c-42 45 -28 208
17 208 27 0 55 -58 55 -113 0 -49 6 -48 44 7 27 38 27 40 11 65 -26 40 -35 95
-24 148 17 79 37 73 74 -23 11 -27 22 -49 25 -49 4 0 17 19 30 42 l23 41 -27
20 c-37 26 -56 68 -56 119 0 54 11 72 38 64 27 -9 48 -43 60 -97 l9 -44 21 45
c35 78 36 87 8 94 -34 8 -77 83 -79 138 -2 38 0 43 18 40 36 -6 67 -33 84 -73
9 -21 19 -39 22 -39 4 0 9 18 13 39 3 22 9 46 12 54 4 11 -6 21 -30 32 -55 26
-109 147 -72 161 22 8 73 -23 93 -56 23 -39 29 -38 37 8 6 39 -10 62 -44 62
-41 0 -119 132 -90 150 19 12 80 -14 107 -45 29 -33 33 -32 33 10 0 25 -5 37
-17 41 -48 14 -90 45 -111 83 -27 47 -23 61 17 61 19 0 44 -14 74 -41 l46 -40
16 38 c17 42 92 123 112 123 9 0 13 -14 13 -40z m-3171 -46 c24 -25 49 -61 57
-80 8 -19 16 -34 19 -34 3 0 19 16 37 35 35 37 86 58 108 45 31 -19 -44 -118
-105 -137 -26 -8 -30 -15 -33 -52 l-3 -43 39 41 c32 33 46 41 76 41 35 0 36
-1 30 -27 -12 -50 -57 -107 -94 -119 -37 -12 -45 -32 -38 -91 l3 -28 18 33
c19 35 70 72 101 72 16 0 17 -5 11 -37 -12 -66 -37 -100 -99 -138 -15 -9 -16
-16 -5 -62 14 -59 24 -67 34 -24 8 35 53 80 85 83 23 3 25 0 24 -33 -1 -50
-33 -110 -71 -134 -34 -21 -35 -40 -7 -94 8 -14 14 -32 14 -38 0 -31 18 -9 23
29 6 46 35 91 62 96 58 12 40 -152 -19 -180 -32 -14 -32 -23 -2 -73 l24 -39
30 67 c17 37 35 67 40 67 16 0 32 -50 32 -102 0 -33 -7 -63 -21 -88 l-22 -38
22 -35 c12 -19 28 -40 36 -47 13 -11 15 -6 15 36 0 56 31 117 57 112 18 -4 43
-76 43 -129 0 -22 -9 -50 -24 -71 l-24 -36 45 -51 c24 -28 48 -51 52 -51 5 0
5 19 0 43 -8 46 5 120 25 137 18 14 54 -28 70 -81 43 -144 -134 -281 -272
-210 -50 26 -96 76 -89 95 5 13 19 15 74 11 37 -2 83 -9 102 -15 19 -5 37 -7
40 -4 3 2 -16 25 -41 51 -45 45 -46 45 -82 33 -46 -15 -98 -6 -153 26 -42 24
-83 71 -83 94 0 17 80 7 155 -19 32 -12 60 -20 61 -18 2 1 -13 26 -33 55 -34
49 -39 52 -69 46 -57 -10 -139 21 -194 75 -44 42 -64 81 -42 81 4 0 51 -16
104 -37 54 -20 101 -34 104 -30 3 3 -4 25 -17 49 -21 36 -30 43 -66 50 -40 7
-103 35 -133 60 -33 28 -70 80 -70 99 0 34 45 22 130 -36 86 -58 91 -56 54 17
-8 15 -14 34 -14 42 0 9 -22 21 -57 32 -72 22 -153 96 -153 138 0 24 3 26 23
20 38 -12 93 -42 126 -70 l32 -27 -6 39 c-11 66 -15 72 -53 95 -50 30 -91 68
-108 101 -18 35 -19 108 -1 108 16 0 85 -64 109 -100 l17 -25 0 48 c1 41 -2
49 -23 57 -80 30 -170 178 -125 206 13 7 91 -66 120 -113 26 -42 33 -41 36 1
2 29 -4 39 -47 75 -57 48 -90 105 -90 154 0 61 14 61 69 1z"/>
<path d="M4970 5640 c-28 -46 -35 -48 -65 -20 l-22 20 -26 -30 c-24 -26 -30
-28 -47 -18 -25 16 -29 10 -23 -29 l5 -33 208 0 c223 0 220 -1 220 51 0 21 -8
23 -30 9 -11 -7 -23 -1 -46 21 -30 29 -30 29 -49 9 -26 -29 -37 -25 -63 20
-12 22 -26 40 -30 40 -4 0 -18 -18 -32 -40z"/>
<path d="M4160 5655 c0 -22 35 -81 70 -119 29 -31 40 -51 36 -62 -4 -11 3 -27
21 -46 25 -26 26 -29 9 -41 -16 -12 -16 -14 3 -31 14 -13 18 -26 15 -45 -4
-19 0 -32 15 -45 27 -24 26 -35 0 -45 -21 -7 -21 -8 10 -30 34 -24 33 -41 -2
-41 -21 -1 -21 -1 -3 -15 10 -8 24 -16 30 -18 7 -3 4 -12 -8 -25 -18 -21 -18
-22 8 -32 24 -9 25 -12 15 -31 -11 -21 0 -38 24 -39 4 0 7 -9 7 -19 0 -11 5
-23 10 -26 6 -3 10 -15 10 -26 0 -11 7 -22 15 -25 8 -4 15 -15 15 -25 0 -11 7
-19 16 -19 9 0 18 -9 21 -20 3 -11 12 -20 20 -20 8 0 17 -9 20 -20 3 -11 10
-20 17 -20 6 0 24 -16 40 -35 23 -27 32 -32 43 -23 11 9 20 4 44 -20 26 -27
34 -30 51 -21 16 8 23 8 29 -2 17 -26 4 -43 -60 -80 -69 -40 -81 -52 -81 -86
0 -23 -31 -44 -82 -57 -21 -5 -32 -1 -52 20 -20 22 -30 26 -55 21 -28 -6 -32
-3 -47 31 -12 29 -13 41 -4 56 10 15 6 23 -22 47 -37 32 -53 37 -44 13 3 -9 6
-31 6 -50 0 -26 3 -32 15 -28 11 4 21 -7 35 -37 40 -89 22 -104 -61 -54 -49
30 -58 39 -48 51 16 19 13 21 -49 29 -51 7 -53 6 -43 -11 18 -34 60 -79 61
-66 0 21 29 14 76 -19 29 -20 43 -36 40 -45 -3 -8 -9 -21 -12 -29 -4 -10 3
-18 20 -25 16 -6 26 -17 26 -30 0 -15 7 -20 28 -20 38 0 84 -44 77 -73 -4 -13
-1 -36 5 -52 11 -28 12 -29 25 -11 8 11 21 16 30 13 28 -11 16 25 -20 59 -38
35 -43 55 -21 73 11 9 20 3 46 -29 17 -22 38 -40 46 -40 9 0 13 4 9 9 -3 5 2
17 12 26 16 16 16 18 -2 31 -10 8 -30 14 -44 14 -63 1 -69 53 -10 84 35 19 38
19 91 2 l56 -17 67 36 c38 20 75 35 83 33 9 -2 19 -16 23 -32 7 -26 3 -35 -39
-81 -48 -52 -92 -129 -92 -159 0 -10 8 -16 21 -16 16 0 19 -4 14 -22 -12 -39
-11 -43 13 -40 19 3 22 -1 22 -27 0 -28 3 -31 30 -31 26 0 31 -5 37 -30 6 -33
15 -37 33 -15 20 24 36 18 54 -20 9 -19 21 -35 25 -35 5 0 18 16 30 35 22 39
32 42 51 20 18 -22 27 -19 39 15 7 23 16 30 35 30 22 0 26 5 26 29 0 31 14 49
25 31 12 -19 24 1 18 30 -4 23 -2 30 10 30 9 0 18 4 21 8 10 16 -43 112 -88
160 -44 47 -53 72 -40 106 9 23 28 20 100 -19 65 -34 111 -39 139 -14 28 27
115 -15 115 -55 0 -14 5 -28 10 -31 6 -3 10 -23 10 -43 0 -34 1 -35 15 -16 8
10 15 15 15 10 0 -4 11 -1 25 8 13 9 33 16 43 16 11 0 22 9 25 20 6 23 49 42
73 33 13 -5 14 0 9 31 -7 35 -7 36 25 36 28 0 31 2 19 16 -7 8 -30 24 -52 35
-31 16 -36 23 -27 34 9 11 17 12 30 5 10 -6 36 -10 57 -10 34 0 38 3 38 25 0
19 -5 25 -22 25 -33 0 -28 13 12 34 28 15 34 24 29 40 -9 29 -11 31 -28 16
-31 -25 -39 -3 -9 26 32 30 52 74 34 74 -5 0 -13 -5 -16 -10 -11 -18 -25 0
-25 31 0 16 -4 29 -10 29 -5 0 -10 -7 -10 -16 0 -11 -6 -14 -21 -9 -21 7 -22
5 -15 -41 12 -81 11 -87 -1 -91 -9 -3 -13 6 -13 26 0 33 -18 51 -30 31 -4 -7
-4 -26 0 -41 8 -28 -3 -49 -15 -29 -12 20 -35 10 -35 -15 0 -27 -15 -34 -24
-10 -8 21 -23 19 -29 -5 -4 -17 -11 -19 -31 -14 -16 4 -26 2 -26 -5 0 -13 31
-46 51 -54 11 -4 9 -9 -6 -21 -11 -9 -30 -25 -43 -36 -40 -34 -119 -1 -134 57
-6 24 -23 40 -78 72 -70 42 -78 53 -60 81 8 12 13 13 29 3 17 -11 24 -8 51 18
24 24 34 29 44 20 11 -9 20 -4 44 24 17 19 34 35 36 35 12 0 96 91 96 104 0 8
7 16 15 20 8 3 15 15 15 26 0 11 6 23 14 26 8 3 12 13 9 24 -3 12 2 20 16 25
23 7 27 20 11 30 -17 11 -11 25 16 36 25 9 26 10 10 28 -16 18 -15 20 11 40
21 15 24 20 11 21 -30 0 -31 22 -2 46 16 13 25 24 19 24 -5 0 -17 5 -25 10
-12 8 -10 14 14 39 23 24 27 33 17 44 -9 11 -6 20 11 42 15 20 18 30 10 33
-18 6 -14 27 9 48 13 12 18 26 15 39 -4 16 5 32 33 59 40 39 79 111 67 123 -8
9 -128 -48 -244 -116 -100 -59 -200 -150 -228 -209 -23 -47 -25 -124 -3 -148
9 -11 19 -38 23 -60 5 -35 2 -47 -24 -83 -30 -41 -46 -51 -102 -65 -25 -6 -28
-3 -39 36 -6 24 -24 78 -41 121 -16 42 -32 103 -35 135 -7 82 -19 107 -61 126
-83 38 -224 8 -238 -51 -8 -30 10 -53 28 -35 31 31 71 -1 84 -65 5 -28 -1 -37
-66 -102 -39 -40 -80 -92 -91 -116 -11 -24 -23 -46 -27 -49 -5 -3 -27 0 -50 6
-87 22 -134 139 -82 205 12 15 20 41 20 62 -1 118 -144 252 -395 370 -83 40
-105 47 -105 36z m1580 -1105 c0 -5 -11 -10 -25 -10 -14 0 -25 5 -25 10 0 6
11 10 25 10 14 0 25 -4 25 -10z"/>
<path d="M2707 3003 c-4 -3 -7 -309 -7 -680 l0 -673 2300 0 2300 0 -2 678 -3
677 -360 2 -360 3 -115 -81 c-440 -309 -921 -461 -1460 -461 -539 0 -1019 152
-1460 461 l-115 81 -356 0 c-196 0 -359 -3 -362 -7z m406 -572 c4 -1 7 -129 7
-286 0 -157 -3 -285 -7 -286 -5 0 -21 -2 -38 -5 -16 -2 -40 -2 -52 1 -23 5
-23 5 -23 226 l0 222 -40 -7 c-37 -6 -41 -4 -51 21 -5 15 -9 38 -7 52 3 22 12
28 78 47 41 12 86 20 100 18 14 -1 28 -3 33 -3z m418 -26 c81 -53 93 -159 27
-231 -19 -21 -19 -21 17 -57 35 -35 39 -48 37 -130 -1 -43 -34 -90 -83 -117
-62 -35 -166 -35 -227 0 -61 34 -82 73 -82 150 0 58 2 64 35 97 l35 35 -25 30
c-61 72 -40 178 44 229 41 25 59 28 124 24 42 -2 69 -11 98 -30z m2917 19 c87
-36 123 -107 103 -201 -10 -43 -25 -65 -88 -135 -42 -46 -85 -89 -95 -96 -34
-25 -18 -31 85 -34 l102 -3 3 -44 c2 -27 -1 -47 -9 -52 -21 -13 -339 -11 -355
2 -8 6 -14 26 -14 44 0 37 44 95 155 205 79 77 97 108 93 158 -4 50 -41 69
-90 49 -18 -8 -39 -21 -47 -30 -20 -25 -44 -21 -74 11 -34 35 -34 42 1 75 63
60 158 82 230 51z m488 -3 c110 -50 166 -191 139 -351 -32 -186 -169 -276
-312 -205 -91 46 -139 154 -131 299 11 205 153 325 304 257z m-2430 -296 c35
-23 55 -70 55 -131 0 -88 -48 -144 -126 -144 -96 0 -148 83 -123 194 5 22 17
49 26 60 41 46 116 55 168 21z m-233 -5 c3 -11 0 -23 -6 -27 -12 -8 -18 -8
-85 -11 -30 -2 -33 -5 -30 -29 3 -26 7 -28 56 -31 47 -3 52 -5 52 -27 0 -22
-5 -24 -52 -27 l-53 -3 -3 -52 c-2 -29 -7 -54 -13 -54 -46 -6 -44 -12 -47 139
l-3 142 90 0 c80 0 89 -2 94 -20z m395 -84 c1 -55 8 -106 14 -113 6 -8 25 -13
42 -11 38 4 44 22 45 141 l1 88 28 -3 c26 -3 27 -4 30 -78 6 -140 -9 -182 -74
-205 -47 -16 -91 -5 -121 30 -21 24 -23 36 -23 141 l0 115 28 -3 27 -3 3 -99z
m319 28 l48 -77 5 74 c5 72 6 74 33 77 31 4 28 17 33 -149 5 -168 -26 -183
-111 -52 l-50 77 -3 -76 c-2 -68 -5 -76 -24 -81 -12 -4 -25 -4 -30 -1 -4 3 -8
68 -8 145 l0 139 29 0 c26 0 36 -10 78 -76z m344 55 c39 -27 59 -69 59 -119 0
-88 -50 -140 -140 -147 -93 -7 -90 -12 -90 147 l0 140 71 0 c56 0 77 -4 100
-21z m287 -6 c-3 -27 -6 -28 -58 -29 -54 -1 -55 -2 -55 -30 0 -28 2 -29 53
-32 48 -3 53 -5 50 -25 -3 -19 -10 -22 -55 -25 -51 -3 -53 -4 -53 -32 0 -28 1
-29 58 -32 53 -3 57 -5 57 -28 0 -24 -2 -25 -80 -27 -44 0 -85 3 -91 8 -8 6
-11 52 -9 137 1 70 3 130 4 135 0 4 42 7 92 7 l90 0 -3 -27z m220 7 c57 -35
78 -122 48 -195 -20 -47 -73 -72 -151 -71 l-60 1 -3 143 -3 142 68 0 c51 0 77
-5 101 -20z"/>
<path d="M3384 2330 c-11 -4 -27 -22 -34 -40 -12 -28 -11 -34 7 -58 35 -47
104 -42 122 8 13 40 -1 77 -34 90 -30 12 -33 12 -61 0z"/>
<path d="M3368 2085 c-60 -33 -38 -126 32 -133 51 -5 80 6 91 35 15 40 2 81
-31 98 -36 18 -57 18 -92 0z"/>
<path d="M6807 2310 c-34 -27 -47 -76 -47 -174 0 -97 24 -157 71 -176 60 -25
104 18 122 123 27 163 -58 296 -146 227z"/>
<path d="M4404 2082 c-35 -23 -46 -111 -18 -150 19 -27 75 -30 95 -5 8 9 14
39 14 70 0 45 -4 58 -24 74 -24 20 -48 24 -67 11z"/>
<path d="M5237 2082 c-16 -3 -17 -14 -15 -85 3 -81 3 -82 30 -85 42 -5 68 28
68 86 0 62 -33 95 -83 84z"/>
<path d="M5737 2084 c-4 -4 -7 -43 -7 -86 0 -85 7 -96 55 -84 52 13 70 110 27
149 -20 19 -65 31 -75 21z"/>
</g>
</svg>
